<?xml version="1.0" encoding="utf-8"?>
<!-- Generator: Adobe Illustrator 19.2.1, SVG Export Plug-In . SVG Version: 6.00 Build 0)  -->
<svg version="1.1" id="Layer_1" xmlns="http://www.w3.org/2000/svg" xmlns:xlink="http://www.w3.org/1999/xlink" x="0px" y="0px"
	 viewBox="0 0 300 276.6" style="enable-background:new 0 0 300 276.6;" xml:space="preserve">
<style type="text/css">
	.st0{fill:#FFFFFF;}
</style>
<g id="IUkicf.tif">
	<g>
		<g>
			<path class="st0" d="M-0.1,93.7C5,86.3,10.2,78.8,15.2,71.3c1.6-2.5,3.1-5.1,4.2-7.9C26,46,38.4,34.6,55.8,28.1
				c2.9-1.1,5.7-3,8.1-5.1c6.1-5.2,12.7-8.9,20.9-8.8c1,0,2.3,0.3,2.9-0.2c9.2-7.8,20.9-6.9,31.6-9.5c4.6-1.1,9.5-2.8,13.9-2.1
				c11,1.8,21.4,0.5,32.2-1.6c18.7-3.6,34.7,3.6,49.4,14.7c3,2.2,6.9,3.8,10.6,4.5c11,2,19.1,7.9,26.1,16.3c2.6,3.1,6,5.9,9.5,7.7
				c9.3,4.8,16,11.7,20.1,21.3c1.1,2.6,2.7,5.4,4.9,7.1c11.1,8.4,15.1,19.2,12.8,32.9c-0.9,5.4-0.6,11.3,0.2,16.8
				c2,13.8,1.8,26.9-8.5,38c-1.2,1.3-1.4,4-1.1,6c2,15.6-2.9,28.4-15,38.6c-16,13.5-32.6,25.7-54.5,28.7c1.9,5,3.7,9.3,5.2,13.7
				c3.5,10.2,2.6,14.1-6.9,19.2c-6.9,3.7-14.6,6.5-22.3,7.6c-10.5,1.6-19-2-25.3-12c-3.9-6.2-10.3-12.2-16.9-15.2
				c-16.9-7.7-27.4-20.3-31.5-37.6c-3-12.8-7.9-21.2-21.8-25.2c-9-2.5-16.8-7.3-26.9-5.5c-4.7,0.9-9.9-0.7-14.8-1.6
				c-7.7-1.4-15.3-3.6-23.1-4.7c-21.8-3.2-33.6-16.3-34.3-38.4c-0.2-6.4-1-12.7-1.5-19.1C-0.1,107.7-0.1,100.7-0.1,93.7z
				 M236.2,75.1c-6.7,4-13.1,4.4-18.7,0c-1.8-1.4-3-5.6-2.2-7.5c0.7-1.6,4.6-2.2,7.3-2.6c2.2-0.4,5.7,1.1,6.6,0.1
				c3.8-4.8,8.8-9.9,9.6-15.4c0.4-3.1-6.5-7.2-10.1-10.8c-0.5-0.5-1.4-0.6-2-0.9c-4.2-2-6.6-1.3-9.5,3.2c-4,6.1-9.6,11.3-15.3,15.9
				c-1.7,1.4-7.3,0.7-8.8-1c-3-3.4-0.4-6.3,3-9.1c4.8-3.8,8.8-8.7,13.3-13.2c-15.1-14.7-30.6-21.4-49.7-14.5c-2,0.7-5.1,3-5.1,4.4
				c0.3,6.4,0.7,13.1,2.8,19.1c0.8,2.4,6.3,3,9.2,5c2,1.4,4.6,4.3,4.2,5.9c-0.5,2.2-3.4,4-5.7,5.4c-1,0.7-2.8,0.1-4.6,0.1
				c-0.6,2.3-1.1,4.5-1.8,6.6c-3.3,9.5-12.7,17.2-21.7,16.8c-2.5-0.1-4.9-3.2-7.4-4.9c1.9-2.2,3.4-5.5,5.8-6.2
				c10.7-3.2,13.9-8.4,11.5-19.4c-1.7-7.5-3.3-15.1-4.1-22.8c-1-9.2-4.1-12.5-13.1-10.2c-7.6,2-14.7,5.6-23.1,4.5
				c-2.5-0.3-5.4,2.8-8.3,4.5c1.9,3.5,3.5,6,4.6,8.7c2.6,6.4,4.2,13.5,13.9,12c1.2-0.2,4.4,3.5,4.2,5c-0.3,2.1-2.6,4.9-4.7,5.5
				c-2.9,0.9-6.7,1.1-9.5,0c-5.1-2-9.1-1.5-13.6,1.6c-3.5,2.4-7.9,3.3-10.3-1.5c-2.1-4.2,0.8-6.7,4.5-8.8c7.5-4.1,7.3-5.9,0.6-16.1
				c-4.1-6.3-7.7-1.9-11.2,0.3c-4.4,2.7-8.2,6.9-12.9,8.4c-15.3,5-24.9,15.1-29.7,30.1c-0.5,1.7,0.3,5,1.6,5.9c3,2,6.6,3.7,10.2,4.3
				c11.7,2.1,13.8,0.3,14.3-11.5c0-1-0.3-2.4,0.2-2.9c1.9-1.9,4.1-4.9,6.2-4.9c1.8,0,4.2,3.3,5.2,5.6c0.9,2.3,0.4,5.1,0.5,8.2
				c12.4-1.8,23.2-0.4,31.1,8.9c1.8,2.1,1,6.4,1.5,9.7c-3.1-0.3-7.2,0.5-9-1.2c-7.3-7.1-15.6-7.9-24.3-4.4
				c-16.7,6.7-32.5,7.5-47-5.1c-7.5,6.4-8.5,14.1-7.6,21.6c6.8,2,12.9,3.1,18.4,5.7c2.1,1,2.5,5.4,3.7,8.2c-3,0.6-6.1,1.9-9.1,1.7
				c-3.4-0.2-6.7-1.6-10.1-2.5c-4.9,27.7,6.1,37.8,28.1,35.1c2.1-0.3,4.8-0.1,6.4,1c9,6.3,18.9,5.3,29.2,4.4
				c0.9-10.4,5.9-17.7,16.2-20c2.2-0.5,6.4,1.1,7.2,2.9c0.8,1.8-1.1,5.2-2.6,7.4c-0.8,1.2-3.1,1.4-4.6,2.3
				c-5.4,3.3-5.5,8.2-0.2,11.6c11.9,7.7,24.9,10.9,39.5,9.2c0-3.8,0.1-7.2,0-10.6c-0.4-9.9,4.8-16.7,12.6-21.5
				c1.8-1.1,6.4-0.7,7.6,0.8c1.3,1.5,0.6,5.4-0.4,7.7c-0.9,2.1-3.6,3.3-5.3,5.2c-4.2,4.8-3.8,18.7,0.5,20.9
				c11.1,5.7,21,4.1,28.7-3.7c-0.6-6.9-1.5-12.7-1.6-18.4c0-4.1,2.1-7.5,6.9-6.9c5,0.6,5,4.4,4.9,8.5c-0.1,3.5,0.7,6.9,1.4,12.5
				c5.7-3.9,10.2-5.9,13.1-9.3c5.5-6.3,10.9-7.6,18.3-3.2c3.4,2,8.1,1.8,11.7,2.5c0.9-8.2,0.9-15,2.6-21.2c1-3.7,4.4-8.2,9.7-5.6
				c5.3,2.6,3.5,6.5,1.1,10.6c-2.8,4.9-0.7,11.4,3.2,11.4c9,0,18.7,0.4,24.8-7.6c6.4-8.4,3.8-17.9,1.6-26c-8.4-1.2-15.9-1.6-23-3.6
				c-2.4-0.7-5.6-5.6-5.2-8.1c0.7-4.5,5-4.4,9-3c3,1.1,6.3,2,9.4,1.8c3.5-0.2,9.3-1,9.9-2.8c1.3-4.1,0.5-9.2-0.6-13.6
				c-0.6-2.3-3.4-4.4-5.6-5.7c-5.1-3-8-7-9.2-12.8c-1.8-8.8-7.8-13.3-16.5-14.6c-4.5,6.2-2.4,11.6,0.9,16.9
				c2.3,3.7,3.9,7.7-0.9,10.3c-4.6,2.5-7.3-0.8-9.4-4.6C238.8,79.1,237.7,77.4,236.2,75.1z M208.7,251.8c-1.7-4.2-3.8-8.4-5.3-12.8
				c-5.4-15.7-21.6-26.9-17.6-47.9c-15.1,8.7-28.1,6.2-41.2,0.6c-2.6-1.1-6.2-0.2-10.1-0.2c1.5,5.2,2.8,9.2,3.9,13.2
				c3.7,12.6,10.8,21.5,23.3,27.3c8.2,3.8,15.2,11.2,21.4,18.1C191,258.8,198.5,260,208.7,251.8z M274.2,171.9
				c-0.8-0.8-1.6-1.6-2.4-2.4c-9.6,1.6-19.2,3.6-28.9,4.8c-5.8,0.7-11.8,0.9-17.5,0.2c-5.2-0.7-19.5,4.9-22,9.7
				c-3.3,6.4-0.9,21,4.3,26.9c6.1,6.8,13.5,5.5,20.7,2.9c16.4-5.8,29.7-16.2,40.9-29.1C272.1,181.7,272.6,176.3,274.2,171.9z"/>
		</g>
		<g>
			<path class="st0" d="M71.2,131.5c-7.2,5.3-13.9,10.4-20.9,15c-1.5,1-5.5,0.6-6.5-0.7c-1.3-1.7-2.1-5.8-1-7.1
				c3.1-3.7,6.9-7.3,11.1-9.5c5.6-2.9,9.2-6,9.4-12.9c0.1-2.2,3.4-6,5-5.9c2.4,0.2,5.5,2.7,6.7,5.1c4.4,9.2,6.6,10.1,15.1,4.4
				c3.1-2.1,5.6-5.2,8.9-6.8c2-1,5.8-0.9,7.2,0.4c1.4,1.3,1.8,5.3,0.8,7.2C100.7,132.4,83.2,137.6,71.2,131.5z"/>
		</g>
		<g>
			<path class="st0" d="M172.4,117c-5.8,3.4-11.3,7.5-17.5,9.9c-4,1.5-9.8,0.7-10.7-5.1c-1-6.3,3.7-6.7,8.8-6.7
				c5.9-0.1,8.8-5.3,7.6-12c-0.8-4.6-2-9.3-1.7-13.9c0.2-2.3,3.5-4.4,5.3-6.5c2,1.8,5.9,3.8,5.8,5.5c-0.8,12.3,5.5,17.6,16.7,19.7
				c1.9,0.3,3.2,4.2,4.8,6.4c-2.4,1.6-4.9,4.6-7.3,4.5c-4.3-0.1-8.5-2-12.8-3.2C171.9,116.1,172.2,116.5,172.4,117z"/>
		</g>
		<g>
			<path class="st0" d="M228.3,119c2.2,0.6,4.9,0.7,6.8,2c2,1.4,4.7,4.4,4.3,5.8c-0.7,2.2-3.6,3.9-5.9,5.4c-0.8,0.5-2.5-0.1-3.6-0.6
				c-6.3-2.9-11.6-1.9-16.7,3.1c-3.2,3.1-7.6,4.9-10.9-0.1c-3.2-4.9,1.1-7.1,4.2-9.5c1.6-1.2,3.2-2.4,4.7-3.8
				c7.2-6.6,7-11.2-0.7-16.9c-0.8-0.6-1.6-1.1-2.5-1.6c-4-2.2-7.8-4.9-4.5-9.9c3-4.4,7-2.3,10.6-0.2
				C225.1,99.2,228.2,104.9,228.3,119z"/>
		</g>
	</g>
</g>
</svg>
