<?xml version="1.0" encoding="utf-8"?>
<!-- Generator: Adobe Illustrator 19.2.1, SVG Export Plug-In . SVG Version: 6.00 Build 0)  -->
<svg version="1.1" id="Layer_3" xmlns="http://www.w3.org/2000/svg" xmlns:xlink="http://www.w3.org/1999/xlink" x="0px" y="0px"
	 viewBox="0 0 300 276.6" style="enable-background:new 0 0 300 276.6;" xml:space="preserve">
<style type="text/css">
	.st0{fill:#FFFFFF;}
</style>
<path class="st0" d="M200.2,209c-2.9,10.8-4.3,22.5-9.3,32.3c-3.5,6.7-12.1,10.8-18.5,16.1c-4.8-6.8-13.4-13.3-13.8-20.3
	c-2-33.7-1.8-67.5-2.5-101.3c-0.1-6.5-1.1-13-1.6-19.5c-1.9-0.4-3.8-0.7-5.7-1.1c-1.6,5.1-4.5,10.3-4.6,15.4
	c-0.7,33.8-0.9,67.5-1.1,101.3c-0.1,11.6-0.9,23.3-15.3,25.3c-15.2,2.1-17.4-10.6-20.5-21.1c-2.6-9.1-4.6-18.3-10.3-27.1
	c-2.9,10.9-4.3,22.7-9.4,32.5c-3.5,6.7-12.1,10.7-18.4,15.9c-4.8-6.8-13.3-13.2-13.9-20.3c-2.1-24.4-1.3-49.1-1.8-73.6
	c-0.1-5.9-0.8-11.9-1.5-20.8c-9.9,8.6-16.7,16.8-25.5,21.4c-5.8,3.1-16.7,3.9-20.9,0.4c-4.4-3.7-7.4-16.7-4.4-20.4
	c21.1-26.6,35.8-59,67-76.9c-12.5-25.8-11-44,5.1-57.6c13.3-11.3,31-12.5,46.2-3.2c18.5,11.5,22,27.8,12,59.4c12.3,0,24.4,0,36.6,0
	c-8.3-34.2-4.7-49.5,14-60.1c15.5-8.9,32.8-7.1,46,4.8c15.1,13.5,16.3,31.6,4,56.7c30.9,18.2,45.9,50.3,66.8,77.1
	c2.9,3.8,0,16-4.3,20.4c-3.4,3.5-14.3,3.6-19.4,0.8c-9.2-5.1-16.6-13.6-29-24.4c0,31.7,0,58.5,0,85.2c0,5.5,1.6,12.2-0.9,16.3
	c-3.7,6-9.8,13.2-15.9,14.3c-4.6,0.8-13.2-6.1-15.6-11.5c-5-11.4-7.1-24-10.5-36.1C202.2,209,201.2,209,200.2,209z M284.2,157.9
	c1.4-0.9,2.8-1.9,4.2-2.8c-0.4-2.6,0.1-5.9-1.3-7.8c-14.4-19.1-28-39-44.2-56.5c-6.1-6.6-18.1-10.5-27.6-10.8
	c-43.6-1.1-87.2-1.4-130.7,0.2c-10.8,0.4-23.6,7-31.2,14.9c-14.5,14.8-26,32.6-38.4,49.4c-2.1,2.9-2.4,7.2-3.6,10.9
	c1.4,0.8,2.8,1.5,4.2,2.3c14.4-12.5,28.8-24.9,43.2-37.4c1.7,0.6,3.5,1.2,5.2,1.8c1.1,40.8,2.3,81.7,3.4,122.5
	c2.2,0,4.5,0.1,6.7,0.1c7.1-25.4,14.1-50.8,21.2-76.2c2.4,0.3,4.9,0.5,7.3,0.8c6.8,25.4,13.5,50.8,20.3,76.2
	c1.8-0.2,3.6-0.3,5.4-0.5c0.9-6.2,2.4-12.3,2.5-18.5c0.6-35.6,1.4-71.3,1-106.9c-0.2-14.8,6.6-17.1,19.1-17.1
	c12.4,0,17.6,3.8,17.5,16.9c-0.3,35.6,0.4,71.3,0.9,106.9c0.1,6.2,1.5,12.4,2.2,18.6c1.7,0.2,3.4,0.4,5.1,0.6
	c7.3-25.7,14.6-51.3,21.9-77c2.4,0.3,4.7,0.7,7.1,1c6.8,25.4,13.6,50.8,20.4,76.2c2.4-0.2,4.7-0.5,7.1-0.7c1-41.1,2-82.1,3.1-123.2
	c2-0.3,4.1-0.7,6.1-1C256.4,133.2,270.3,145.5,284.2,157.9z M99.5,66.3c15.7-0.4,26.1-11.3,25.9-26.9c-0.3-15.5-11.4-26.8-26.5-26.9
	c-15.7-0.1-27.6,12.4-27,28.4C72.4,55.9,84,66.6,99.5,66.3z M203.6,12.6c-15-0.9-27.5,9.8-28.9,24.7c-1.4,14.8,9.3,27.6,24.1,28.9
	c16.5,1.4,28.9-9.1,29.6-25.1C229.1,25.7,218.5,13.5,203.6,12.6z"/>
</svg>
