<?xml version="1.0" encoding="utf-8"?>
<!-- Generator: Adobe Illustrator 19.2.1, SVG Export Plug-In . SVG Version: 6.00 Build 0)  -->
<svg version="1.1" id="Layer_2" xmlns="http://www.w3.org/2000/svg" xmlns:xlink="http://www.w3.org/1999/xlink" x="0px" y="0px"
	 viewBox="0 0 300 276.6" style="enable-background:new 0 0 300 276.6;" xml:space="preserve">
<style type="text/css">
	.st0{fill:#FFFFFF;}
</style>
<g>
	<path class="st0" d="M124.9,85.1l-2.4,7.2l5.9-4.7c14-11.3,27-11.3,42.1,0l6.2,4.6l-2.8-7.2c-6.6-17-2.4-29.8,13-40.1l6.5-4.4
		l-7.9,0.3c-18.7,0.6-29.3-7-34.3-24.8l-2.2-7.8L147,16c-4.8,17.8-15.4,25.5-34.2,24.8l-8.2-0.3l6.9,4.4
		C126.7,54.7,130.9,67.1,124.9,85.1z"/>
	<path class="st0" d="M292.7,121.9c-17.2-7.3-23.3-18.9-19.3-36.6l1.1-4.9l-4.4,2.5c-20.7,11.7-20.7,11.7-43.4,7.3l-3.8-0.7l1.2,3.6
		c0.8,2.5,1.8,4.9,2.7,7.2c2,5,4,9.8,4,14.3c0,3.3-2.3,6.1-5,9.4c-2.8,3.4-5.9,7.3-7.3,12.7l-0.9,3.7l3.7-1
		c17.1-4.7,28.7,1,36.5,17.8l3.4,7.3l0.9-8c1.9-18.1,11.2-27.5,30.1-30.3l7.8-1.2L292.7,121.9z"/>
	<path class="st0" d="M78.3,138l8,1.4l-6.2-5.3c-13.1-11.3-14.9-23.8-6.1-41.8l3.3-6.8l-6.5,3.9c-15.3,9.1-28,7-40.2-6.6l-3.2-3.7
		L26.9,84c-3.2,24.1-3.2,24.1-22.4,39.6L0,127.2l5.8,0.3c19.1,1.1,28.6,10.2,30.6,29.3l0.8,8.1l3.4-7.4
		C48.3,140.9,60.2,134.7,78.3,138z"/>
	<path class="st0" d="M155.6,233.6c0.1-13.8,0.1-27.8,0.1-41.3l0-14.5l0-14.5c0-13.5,0-27.5-0.1-41.3c0-0.6,0-1.2,0.1-1.9
		c0.1-2.6,0.3-5.9-1.7-8.1c-1.2-1.2-2.8-1.8-5-1.8c-1.8,0-3.2,0.6-4.3,1.7c-2,2.1-1.9,5.4-1.8,8.1c0,0.5,0,1,0,1.5
		c-0.1,38.7-0.1,76.6,0,112.7c0,0.5,0,1,0,1.5c-0.1,2.6-0.2,5.9,1.8,8c1.1,1.1,2.5,1.7,4.4,1.7c0,0,0,0,0.1,0c2.1,0,3.8-0.6,4.9-1.8
		c2-2.2,1.8-5.4,1.7-8C155.6,234.8,155.6,234.2,155.6,233.6z"/>
	<path class="st0" d="M137.6,267.5c-7.1-43.3-28.8-79.2-64.6-106.8c-2.4-1.9-4.5-2.6-6.4-2.3c-1,0.2-2.5,0.8-3.6,2.6
		c-2.8,4.4,1.4,7.6,3.3,9.1l0.2,0.2c11.1,8.7,20.3,17.8,28.1,27.8c17.1,21.9,27.1,44.3,30.7,68.4c0.1,0.5,0.1,1,0.2,1.5
		c0.3,2.9,0.7,7.8,6,8.6c0.3,0,0.7,0.1,0.9,0.1c1.5,0,2.6-0.6,3.2-1.1c2-1.7,2.1-4.7,2-7.6L137.6,267.5z"/>
	<path class="st0" d="M231.8,158.4c-2.7-0.5-5.1,1.4-7.2,3c-35,27.3-56.4,62.9-63.6,105.7l0,0.1c-0.3,2.7-0.9,7.9,4.2,9
		c0.6,0.1,1.2,0.2,1.8,0.2c1.1,0,2.1-0.3,2.9-0.9c2-1.4,2.4-4,2.6-5.9c0.1-0.4,0.1-0.7,0.2-1.1c1.7-9.3,3.4-17.6,6.2-25.6
		c10-28.2,27.6-52.5,52.1-72.1c0.3-0.2,0.6-0.5,1-0.7c2-1.5,6.3-4.7,3.5-9.2C234.5,159.6,233.3,158.7,231.8,158.4z"/>
	<path class="st0" d="M68.5,47.8c1.3,1.6,3.5,2.5,6.8,2.6c0.1,0,0.3,0,0.4,0c4,0,6.7-2.1,7.7-6.1l0.2-0.7l-0.3-0.7
		c-1.3-3.1-3.9-4.9-7.5-5c-4.7-0.2-7.9,1.7-8.4,5.2C67,45.4,67.8,46.9,68.5,47.8z"/>
	<path class="st0" d="M61.7,39c0.3,0,0.6,0.1,0.8,0.1c1.6,0,2.8-0.6,3.4-1.2c1.4-1.2,2.3-3.2,2.5-6.1c0.3-4.5-1.4-7.3-5-8.3
		l-0.4-0.1l-0.5,0.1c-3.8,0.5-6.3,3.2-6.4,7.4C56,35.4,58.1,38.5,61.7,39z"/>
	<path class="st0" d="M218.5,15.4c0.1,0,0.1,0,0.2,0c1.4,0,6.1-0.7,6.1-7.7c0-4.3-2.2-7.1-6-7.6L218.4,0L218,0.1
		c-2.2,0.5-5.8,2.1-5.7,7.8c0,2.6,0.7,4.6,2.1,5.9C215.1,14.5,216.4,15.4,218.5,15.4z"/>
	<path class="st0" d="M217.7,26.6c-3.7,0.6-5.8,3.7-5.4,8.3c0.2,2.7,1.1,4.7,2.6,5.8c0.7,0.5,1.8,1.1,3.4,1.1c0.3,0,0.7,0,1.1-0.1
		c3.5-0.5,5.4-3.3,5.4-8.1l0-0.2l-0.1-0.2C224.3,31.1,223.2,25.7,217.7,26.6z"/>
	<path class="st0" d="M49.2,50.5c0.1,0,0.2,0,0.3,0c6-0.2,7.3-3.9,7.6-6.1l0-0.4l-0.1-0.4c-0.6-2.2-2.4-5.9-8.2-5.5
		c-2.6,0.2-4.5,1.1-5.7,2.6c-0.7,0.9-1.4,2.4-1,4.8C42.7,48.5,45.5,50.5,49.2,50.5z"/>
	<path class="st0" d="M205.8,26.6c0,0,0.1,0,0.1,0c6.1,0,7-3.6,7.1-5.1c0.1-1.7-0.3-3-1.2-4.1c-1.6-1.8-4.3-2-6.2-2.1l-0.1,0l-0.1,0
		c-1.8,0-6.7,0.2-7.1,5.1c-0.1,1.8,0.3,3.3,1.3,4.3C201.3,26.6,204,26.6,205.8,26.6z"/>
	<path class="st0" d="M225.3,24.6c1.7,1.9,4.4,1.9,6.2,2c0.2,0,0.3,0,0.5,0c5.2,0,6.5-2.8,6.7-5.1c0.1-1.8-0.3-3.2-1.2-4.3
		c-1.6-1.8-4-1.9-6-1.9l-0.2,2.2l0.1-2.2l-0.1,0l-0.1,0c-1.7,0.1-6.8,0.3-7.2,5.2C223.9,22.1,224.3,23.5,225.3,24.6z"/>
	<path class="st0" d="M61.9,49.6c-5.2,0.6-5,5.4-4.9,7.5l0,0.7c0,1.8,0.3,3.8,1.7,5.2c0.9,0.9,2.2,1.3,3.7,1.3c0.1,0,0.3,0,0.4,0
		l0.6-0.1c2.1-0.7,5.4-2.7,4.8-8.4C67.8,51.7,65.3,49.3,61.9,49.6z"/>
	<path class="st0" d="M115.7,120c-2.1-0.5-3.5,0-4.4,0.6c-0.9,0.6-2,1.7-2.3,4c-0.4,2.7,1.2,5,4,5.8c0.5,0.1,1.1,0.2,1.6,0.2
		c2.3,0,4.1-1.5,5-4.1l0.1-0.4C120.1,123,118.5,120.7,115.7,120z"/>
	<path class="st0" d="M261.1,64.3c0.1,0,0.1,0,0.2,0c3.5-0.1,4.2-3.2,4.5-4.6l-2.2-0.6l0,0l2.2,0.5l0.1-0.5l-0.1-0.5
		c-0.3-1.3-1.2-4.7-4.8-4.5c-1.7,0.1-3.2,0.8-4.1,1.9c-0.6,0.8-1.3,2.1-0.9,4.1C256.4,62.7,258.4,64.3,261.1,64.3z"/>
	<path class="st0" d="M183.7,154.9l-1.4,0.2c-1.4,0.2-4.8,0.6-5.7,4.1c-0.5,1.8,0,3.1,0.4,3.9c0.5,0.8,1.4,1.7,3.2,2.1
		c0.6,0.1,1.1,0.2,1.6,0.2c1.3,0,2.4-0.4,3.3-1.1c1.1-0.9,1.7-2.3,1.7-3.9c0-1.6-1-2.8-1.8-3.7c-0.2-0.2-0.4-0.5-0.5-0.7
		L183.7,154.9z"/>
</g>
</svg>
